<svg xmlns="http://www.w3.org/2000/svg" viewBox="0 0 512 512" width="512" height="512">
  <defs>
    <linearGradient id="bg" x1="0" y1="0" x2="1" y2="1">
      <stop offset="0%" stop-color="#f59e0b"/>
      <stop offset="50%" stop-color="#d97706"/>
      <stop offset="100%" stop-color="#b45309"/>
    </linearGradient>
    <linearGradient id="flameOuter" x1="0" y1="0" x2="0" y2="1">
      <stop offset="0%" stop-color="#fde68a"/>
      <stop offset="55%" stop-color="#fcd34d"/>
      <stop offset="100%" stop-color="#ffffff"/>
    </linearGradient>
    <linearGradient id="flameInner" x1="0" y1="0" x2="0" y2="1">
      <stop offset="0%" stop-color="#ffffff"/>
      <stop offset="60%" stop-color="#fde68a"/>
      <stop offset="100%" stop-color="#fbbf24"/>
    </linearGradient>
  </defs>
  <rect width="512" height="512" rx="96" fill="url(#bg)"/>
  <g transform="translate(96 80) scale(10)">
    <path fill="url(#flameOuter)" d="M16 2 C19 8 25 11 25 18 C25 25 21 30 16 30 C11 30 7 25 7 18 C7 15 8 13 10 12 C10.5 15 12 16 13 15 C11.5 11 14 6 16 2 Z"/>
    <path fill="url(#flameInner)" opacity="0.9" d="M16 8 C18 12 22 15 22 20 C22 24.5 19.5 28 16 28 C12.5 28 10 24.5 10 20 C10 18 10.5 17 11.5 16.5 C11.7 18.5 13 19 14 18 C13 15 14.5 11 16 8 Z"/>
  </g>
</svg>
